# Blender v2.79 (sub 0) OBJ File: 'tree.blend'
# www.blender.org
mtllib tree-trunk.mtl
o Cylinder
v -1.166433 -0.711168 -1.419182
v -0.567043 1.296114 -1.579601
v 0.008254 -0.711168 -1.308920
v 0.390909 1.296114 -1.266427
v 0.266388 -0.711168 -0.157654
v 0.389087 1.296114 -0.258583
v -0.748764 -0.711168 0.443606
v -0.569993 1.296114 0.051124
v -1.634296 -0.711168 -0.336061
v -1.160913 1.296114 -0.765310
v -0.276925 2.856738 -1.656722
v 0.573135 2.856738 -1.219192
v 0.419703 2.856738 -0.275532
v -0.525184 2.856738 -0.129848
v -0.955724 2.856738 -0.983470
v -0.104121 4.490289 -1.519916
v 0.493220 4.490289 -0.978428
v 0.162823 4.490289 -0.242993
v -0.638716 4.490289 -0.329958
v -0.803696 4.490289 -1.119140
v -0.147826 6.115096 -1.303692
v 0.250891 6.115096 -0.706201
v -0.194146 6.115096 -0.142364
v -0.867912 6.115096 -0.391384
v -0.839284 6.115096 -1.109124
v -0.450946 7.363594 -1.053884
v -0.105474 7.363594 -0.649733
v -0.383087 7.363594 -0.196280
v -0.900135 7.363594 -0.320181
v -0.942074 7.363594 -0.850210
v -0.765005 8.705225 -0.849931
v -0.421715 8.705225 -0.616695
v -0.537454 8.705225 -0.218133
v -0.952274 8.705225 -0.205045
v -1.092908 8.705225 -0.595518
v -1.008487 9.657719 -0.570111
v -0.786155 9.657719 -0.515960
v -0.768952 9.657719 -0.287776
v -0.980651 9.657719 -0.200902
v -1.128692 9.657719 -0.375395
v -1.031250 10.170598 -0.332777
v -0.767613 5.935980 -1.121341
v -1.441172 6.703678 -0.616901
v -0.381060 6.401248 -0.913302
v -1.096103 7.027644 -0.343877
v -0.145498 6.223530 -0.345760
v -0.961991 6.776531 0.122519
v -0.386466 5.648429 -0.203038
v -1.224173 6.297367 0.137742
v -0.770954 5.470712 -0.682374
v -1.520324 6.252342 -0.319244
v -2.014165 7.214955 -0.226176
v -1.686628 7.462782 0.090007
v -1.609081 7.164027 0.506423
v -1.888692 6.731559 0.447600
v -2.139047 6.763035 -0.005172
v -2.626287 7.641202 0.266036
v -2.364848 7.757217 0.596579
v -2.371143 7.435967 0.892936
v -2.636472 7.121410 0.745551
v -2.794159 7.248252 0.358106
v -3.292658 7.954844 0.763912
v -3.086605 7.973646 1.093840
v -3.152118 7.646942 1.295426
v -3.398660 7.426226 1.090084
v -3.485519 7.616519 0.761591
v -3.878831 8.062021 1.149194
v -3.715469 8.106519 1.382489
v -3.742739 7.877450 1.555340
v -3.922956 7.691381 1.428874
v -4.007065 7.805452 1.177862
v -4.513653 8.198109 1.534917
v -4.373823 8.284145 1.688785
v -4.357193 8.136602 1.857855
v -4.486744 7.959379 1.808477
v -4.583442 7.997392 1.608891
v -4.952796 8.252580 1.868538
v -4.875184 8.332374 1.923322
v -4.839244 8.282907 2.031272
v -4.894643 8.172543 2.043204
v -4.964821 8.153799 1.942628
v -5.143381 8.305822 2.102783
v -0.189233 6.873835 -0.749560
v 0.121978 6.936718 -0.112865
v -0.330487 6.573431 -0.527221
v -0.056431 6.727547 0.089363
v -0.680652 6.688176 -0.372792
v -0.341635 6.889680 0.183440
v -0.755811 7.059495 -0.499689
v -0.339492 7.199056 0.039353
v -0.452098 7.174239 -0.732545
v -0.052964 7.228127 -0.143774
v 0.366936 7.040874 0.354866
v 0.163422 6.880862 0.549271
v -0.089407 7.073755 0.609971
v -0.042150 7.352982 0.453082
v 0.239886 7.332659 0.295418
v 0.574004 7.220221 0.841209
v 0.364727 7.145315 0.999741
v 0.187434 7.352733 1.008998
v 0.287139 7.555829 0.856188
v 0.526053 7.473932 0.752489
v 0.777463 7.469840 1.293548
v 0.570934 7.457701 1.421477
v 0.452968 7.668640 1.393970
v 0.586591 7.811146 1.249041
v 0.787140 7.688282 1.186977
v 0.935360 7.748052 1.600314
v 0.788563 7.719321 1.700523
v 0.686169 7.867220 1.692894
v 0.769684 7.987359 1.587969
v 0.923693 7.913707 1.530752
v 1.122202 8.033514 1.926030
v 1.024004 7.977963 2.009835
v 0.921991 8.073225 2.026279
v 0.957141 8.187651 1.952638
v 1.080878 8.163109 1.890680
v 1.218539 8.263389 2.166217
v 1.182380 8.211868 2.211416
v 1.116158 8.243807 2.235895
v 1.111389 8.315065 2.205825
v 1.174664 8.327168 2.162761
v 1.235726 8.371728 2.323220
vn 0.0929 -0.1069 -0.9899
vn 0.9733 -0.0705 -0.2182
vn 0.5058 0.1219 0.8540
vn 0.9869 -0.0176 0.1605
vn -0.6473 0.2014 0.7352
vn -0.9102 0.1306 -0.3931
vn 0.0000 -1.0000 0.0000
vn -0.9732 0.1075 0.2034
vn -0.7010 0.0954 -0.7068
vn 0.4575 -0.0265 -0.8888
vn 0.3057 0.1010 0.9467
vn -0.8787 0.1775 0.4432
vn -0.4945 0.1016 -0.8632
vn 0.9039 0.1341 0.4061
vn -0.4932 0.1243 -0.8610
vn -0.1072 0.1135 0.9877
vn 0.6649 0.1406 -0.7335
vn -0.9965 -0.0738 -0.0397
vn -0.3466 -0.0134 0.9379
vn 0.8129 0.2121 -0.5424
vn -0.9990 -0.0216 -0.0398
vn 0.7780 0.1329 0.6141
vn -0.3826 0.0507 -0.9225
vn 0.8432 0.1499 0.5162
vn -0.2687 0.1258 -0.9550
vn -0.2326 -0.0614 0.9706
vn 0.8045 0.2539 -0.5369
vn -0.9348 -0.1129 0.3367
vn 0.0314 -0.0842 0.9959
vn 0.7461 0.1916 -0.6377
vn -0.9889 -0.1260 0.0783
vn 0.9540 0.1143 0.2770
vn 0.9703 0.2305 -0.0732
vn -0.6113 0.0752 -0.7878
vn 0.3796 0.0073 0.9251
vn 0.5379 0.2895 -0.7917
vn 0.2150 0.4180 -0.8826
vn -0.8335 0.2011 -0.5146
vn -0.7594 0.0907 0.6443
vn 0.3660 0.2655 0.8919
vn 0.8907 0.4496 -0.0672
vn -0.1071 0.4786 -0.8715
vn 0.5690 0.8221 0.0213
vn 0.4115 0.0534 0.9099
vn 0.6293 0.6822 0.3722
vn -0.3525 -0.7494 0.5606
vn -0.7293 -0.4668 -0.5003
vn 0.7736 -0.4378 -0.4582
vn -0.6011 -0.7990 -0.0169
vn -0.6573 -0.1767 -0.7327
vn 0.0685 0.7495 -0.6584
vn 0.3337 -0.1531 0.9302
vn -0.5410 -0.8051 0.2432
vn -0.5801 0.0574 -0.8125
vn 0.5241 0.5719 0.6311
vn -0.5963 0.0673 -0.7999
vn 0.0931 -0.4857 0.8691
vn 0.0986 0.9120 -0.3981
vn -0.5345 -0.7849 -0.3134
vn 0.0392 -0.7037 0.7094
vn 0.1768 0.9702 -0.1657
vn -0.5763 -0.7640 -0.2902
vn 0.5028 0.3787 0.7771
vn -0.4900 0.1489 -0.8589
vn 0.5036 0.4814 0.7174
vn -0.4896 0.2848 -0.8241
vn 0.1509 -0.6515 0.7435
vn 0.1409 0.9795 -0.1438
vn -0.3754 -0.9268 0.0054
vn 0.3290 -0.4689 0.8197
vn 0.1302 0.9532 -0.2730
vn -0.4606 -0.8560 -0.2347
vn 0.5369 0.6611 0.5241
vn 0.3702 0.8850 0.2823
vn -0.6092 -0.0790 -0.7890
vn 0.4440 -0.1270 0.8870
vn -0.1051 0.9056 -0.4109
vn -0.4154 0.7537 -0.5093
vn -0.7690 -0.3210 -0.5528
vn -0.3547 -0.8429 0.4046
vn 0.2282 -0.0093 0.9736
vn 0.1556 0.9166 0.3682
vn 0.7514 -0.5826 -0.3098
vn -0.1201 -0.9077 0.4020
vn -0.7962 0.0450 0.6033
vn -0.4155 -0.7197 0.5563
vn -0.3403 0.9401 0.0194
vn 0.6423 0.5898 -0.4894
vn -0.4736 -0.3691 -0.7996
vn 0.1500 0.9142 -0.3765
vn 0.8301 0.2610 -0.4928
vn 0.6041 -0.7966 -0.0232
vn -0.8284 0.2412 0.5056
vn -0.0435 0.9780 -0.2038
vn 0.9067 0.0241 -0.4211
vn -0.5261 -0.4810 0.7013
vn 0.9152 0.0325 -0.4017
vn -0.7425 0.5954 0.3069
vn 0.4960 -0.8272 0.2640
vn 0.2739 0.7508 -0.6011
vn -0.6947 0.7164 0.0639
vn 0.3292 -0.8286 0.4528
vn 0.2994 0.7720 -0.5607
vn -0.6657 -0.2822 0.6908
vn 0.9012 -0.1123 -0.4186
vn -0.5939 -0.3744 0.7121
vn 0.9324 -0.1910 -0.3068
vn -0.7763 0.6230 0.0955
vn 0.3466 -0.8039 0.4833
vn -0.0764 0.8653 -0.4954
vn -0.8814 0.4155 0.2249
vn 0.4176 -0.8279 0.3744
vn 0.1484 0.7813 -0.6062
vn -0.4414 -0.5895 0.6765
vn -0.0981 -0.7255 0.6812
vn 0.8635 0.1434 -0.4836
vn -0.8751 0.1373 0.4641
vn 0.6503 -0.6982 0.2992
vn 0.8765 -0.4356 0.2047
vn 0.7561 0.4971 -0.4258
vn -0.2857 0.9459 -0.1540
vn -0.7213 0.2277 0.6541
vn 0.0227 -0.5781 0.8157
vn 0.3105 -0.0391 -0.9498
vn 0.9823 -0.1873 0.0018
vn 0.3072 0.0291 0.9512
vn 0.9932 -0.1160 0.0018
vn -0.7723 0.3017 0.5590
vn -0.7931 0.1906 -0.5784
vn -0.8928 -0.0069 0.4503
vn -0.8077 0.0239 -0.5891
vn 0.3090 -0.1042 -0.9453
vn 0.1524 0.0077 0.9883
vn -0.8067 0.0909 0.5839
vn -0.2709 0.0000 -0.9626
vn 0.9867 0.0246 0.1604
vn -0.7042 0.0066 -0.7100
vn 0.1524 0.0043 0.9883
vn 0.4575 0.0260 -0.8888
vn -0.9964 -0.0302 0.0788
vn -0.1075 -0.0850 0.9906
vn 0.6671 0.1159 -0.7359
vn -0.9706 -0.1292 0.2029
vn 0.9101 0.0672 0.4089
vn -0.6110 0.0808 -0.7875
vn 0.7703 0.1924 0.6080
vn -0.3783 0.1580 -0.9121
vn -0.3467 -0.0120 0.9379
vn 0.7251 0.3001 -0.6198
vn -0.7623 -0.0255 0.6467
vn -0.2330 -0.0110 0.9724
vn 0.5443 0.2492 -0.8011
vn -0.9388 -0.0655 0.3381
vn 0.8382 0.1849 0.5131
vn 0.9098 0.3202 0.2642
vn -0.8475 0.0891 -0.5232
vn 0.0314 0.0805 0.9963
vn 0.2236 0.3269 -0.9182
vn -0.0226 0.6582 -0.7525
vn 0.7188 0.6771 0.1578
vn 0.3913 -0.1855 0.9014
vn 0.6701 0.7167 0.1932
vn -0.5465 -0.7215 0.4252
vn -0.7531 -0.2651 -0.6022
vn -0.4049 -0.9000 0.1613
vn -0.6352 -0.3445 -0.6912
vn 0.0280 0.6266 -0.7789
vn 0.3266 -0.3315 0.8851
vn -0.3973 -0.8518 0.3414
vn -0.3954 0.2315 -0.8888
vn 0.5966 0.7006 0.3915
vn -0.5912 -0.2166 -0.7769
vn 0.3293 -0.3331 0.8835
vn 0.0278 0.7725 -0.6344
vn -0.5389 -0.8201 -0.1921
vn 0.2471 -0.5742 0.7805
vn 0.1184 0.9039 -0.4109
vn -0.4167 -0.9004 -0.1252
vn 0.5801 0.5461 0.6043
vn -0.6133 -0.0765 -0.7861
vn 0.4508 0.4015 0.7972
vn -0.5679 0.1945 -0.7998
vn 0.0381 -0.7031 0.7101
vn 0.0384 0.9763 -0.2131
vn -0.2659 -0.8972 0.3527
vn 0.1121 -0.6306 0.7680
vn -0.0725 0.8971 -0.4358
vn -0.4141 -0.9098 0.0273
vn 0.4728 0.4942 0.7295
vn 0.3486 0.7229 0.5966
vn -0.6927 -0.3769 -0.6149
vn 0.2017 -0.3969 0.8954
vn -0.3487 0.7368 -0.5793
vn 0.6898 -0.7125 -0.1285
vn -0.3619 -0.8538 0.3743
vn -0.8666 0.2156 0.4501
vn -0.3312 -0.8362 0.4371
vn -0.1109 0.9937 -0.0158
vn 0.7933 0.4306 -0.4303
vn -0.1328 0.9247 -0.3568
vn 0.7273 0.3757 -0.5744
vn 0.6556 -0.7333 -0.1801
vn -0.8649 0.3491 0.3608
vn -0.2220 0.9552 -0.1958
vn 0.8798 -0.2393 -0.4106
vn -0.3954 -0.7040 0.5900
vn 0.7916 0.2293 -0.5665
vn -0.8665 0.3478 0.3580
vn 0.6290 -0.7772 0.0188
vn 0.1954 0.8230 -0.5334
vn -0.8388 0.5237 0.1488
vn 0.4857 -0.8392 0.2446
vn 0.0376 0.8245 -0.5645
vn -0.5618 -0.5093 0.6519
vn 0.8658 0.1454 -0.4789
vn -0.6303 -0.2570 0.7325
vn 0.9421 -0.0712 -0.3276
vn -0.6940 0.7170 0.0651
vn 0.4598 -0.7626 0.4550
vn -0.3420 0.9064 -0.2478
vn -0.7538 0.6428 0.1360
vn 0.6373 -0.7226 0.2677
vn -0.0541 0.8867 -0.4592
vn -0.5733 -0.3589 0.7365
vn -0.3209 -0.4842 0.8140
vn 0.7141 0.4628 -0.5252
vn -0.8036 0.4764 0.3567
vn 0.8608 -0.4930 0.1266
usemtl Material.001
s off
f 2//1 3//1 1//1
f 3//2 6//2 5//2
f 5//3 8//3 7//3
f 6//4 12//4 13//4
f 8//5 9//5 7//5
f 10//6 1//6 9//6
f 3//7 5//7 7//7
f 15//8 19//8 20//8
f 2//9 15//9 11//9
f 4//10 11//10 12//10
f 6//11 14//11 8//11
f 10//12 14//12 15//12
f 20//13 21//13 16//13
f 13//14 17//14 18//14
f 11//15 20//15 16//15
f 14//16 18//16 19//16
f 12//17 16//17 17//17
f 24//18 30//18 25//18
f 19//19 23//19 24//19
f 17//20 21//20 22//20
f 20//21 24//21 25//21
f 18//22 22//22 23//22
f 30//23 31//23 26//23
f 23//24 27//24 28//24
f 25//25 26//25 21//25
f 24//26 28//26 29//26
f 21//27 27//27 22//27
f 34//28 40//28 35//28
f 29//29 33//29 34//29
f 26//30 32//30 27//30
f 29//31 35//31 30//31
f 28//32 32//32 33//32
f 33//33 37//33 38//33
f 35//34 36//34 31//34
f 34//35 38//35 39//35
f 31//36 37//36 32//36
f 37//37 36//37 41//37
f 36//38 40//38 41//38
f 40//39 39//39 41//39
f 39//40 38//40 41//40
f 38//41 37//41 41//41
f 43//42 44//42 42//42
f 44//43 47//43 46//43
f 46//44 49//44 48//44
f 47//45 53//45 54//45
f 49//46 50//46 48//46
f 51//47 42//47 50//47
f 44//48 46//48 48//48
f 56//49 60//49 61//49
f 43//50 56//50 52//50
f 45//51 52//51 53//51
f 47//52 55//52 49//52
f 51//53 55//53 56//53
f 61//54 62//54 57//54
f 54//55 58//55 59//55
f 52//56 61//56 57//56
f 55//57 59//57 60//57
f 53//58 57//58 58//58
f 65//59 71//59 66//59
f 60//60 64//60 65//60
f 58//61 62//61 63//61
f 61//62 65//62 66//62
f 59//63 63//63 64//63
f 71//64 72//64 67//64
f 64//65 68//65 69//65
f 66//66 67//66 62//66
f 65//67 69//67 70//67
f 62//68 68//68 63//68
f 75//69 81//69 76//69
f 70//70 74//70 75//70
f 67//71 73//71 68//71
f 70//72 76//72 71//72
f 69//73 73//73 74//73
f 74//74 78//74 79//74
f 76//75 77//75 72//75
f 75//76 79//76 80//76
f 72//77 78//77 73//77
f 78//78 77//78 82//78
f 77//79 81//79 82//79
f 81//80 80//80 82//80
f 80//81 79//81 82//81
f 79//82 78//82 82//82
f 84//83 85//83 83//83
f 85//84 88//84 87//84
f 87//85 90//85 89//85
f 88//86 94//86 95//86
f 90//87 91//87 89//87
f 92//88 83//88 91//88
f 85//89 87//89 89//89
f 97//90 101//90 102//90
f 84//91 97//91 93//91
f 86//92 93//92 94//92
f 88//93 96//93 90//93
f 92//94 96//94 97//94
f 102//95 103//95 98//95
f 95//96 99//96 100//96
f 93//97 102//97 98//97
f 96//98 100//98 101//98
f 94//99 98//99 99//99
f 106//100 112//100 107//100
f 101//101 105//101 106//101
f 99//102 103//102 104//102
f 102//103 106//103 107//103
f 100//104 104//104 105//104
f 112//105 113//105 108//105
f 105//106 109//106 110//106
f 107//107 108//107 103//107
f 106//108 110//108 111//108
f 103//109 109//109 104//109
f 116//110 122//110 117//110
f 111//111 115//111 116//111
f 108//112 114//112 109//112
f 111//113 117//113 112//113
f 110//114 114//114 115//114
f 115//115 119//115 120//115
f 117//116 118//116 113//116
f 116//117 120//117 121//117
f 113//118 119//118 114//118
f 119//119 118//119 123//119
f 118//120 122//120 123//120
f 122//121 121//121 123//121
f 121//122 120//122 123//122
f 120//123 119//123 123//123
f 2//124 4//124 3//124
f 3//125 4//125 6//125
f 5//126 6//126 8//126
f 6//127 4//127 12//127
f 8//128 10//128 9//128
f 10//129 2//129 1//129
f 9//7 1//7 7//7
f 1//7 3//7 7//7
f 15//130 14//130 19//130
f 2//131 10//131 15//131
f 4//132 2//132 11//132
f 6//133 13//133 14//133
f 10//134 8//134 14//134
f 20//135 25//135 21//135
f 13//136 12//136 17//136
f 11//137 15//137 20//137
f 14//138 13//138 18//138
f 12//139 11//139 16//139
f 24//140 29//140 30//140
f 19//141 18//141 23//141
f 17//142 16//142 21//142
f 20//143 19//143 24//143
f 18//144 17//144 22//144
f 30//145 35//145 31//145
f 23//146 22//146 27//146
f 25//147 30//147 26//147
f 24//148 23//148 28//148
f 21//149 26//149 27//149
f 34//150 39//150 40//150
f 29//151 28//151 33//151
f 26//152 31//152 32//152
f 29//153 34//153 35//153
f 28//154 27//154 32//154
f 33//155 32//155 37//155
f 35//156 40//156 36//156
f 34//157 33//157 38//157
f 31//158 36//158 37//158
f 43//159 45//159 44//159
f 44//160 45//160 47//160
f 46//161 47//161 49//161
f 47//162 45//162 53//162
f 49//163 51//163 50//163
f 51//164 43//164 42//164
f 50//48 42//48 48//48
f 42//48 44//48 48//48
f 56//165 55//165 60//165
f 43//166 51//166 56//166
f 45//167 43//167 52//167
f 47//168 54//168 55//168
f 51//169 49//169 55//169
f 61//170 66//170 62//170
f 54//171 53//171 58//171
f 52//172 56//172 61//172
f 55//173 54//173 59//173
f 53//174 52//174 57//174
f 65//175 70//175 71//175
f 60//176 59//176 64//176
f 58//177 57//177 62//177
f 61//178 60//178 65//178
f 59//179 58//179 63//179
f 71//180 76//180 72//180
f 64//181 63//181 68//181
f 66//182 71//182 67//182
f 65//183 64//183 69//183
f 62//184 67//184 68//184
f 75//185 80//185 81//185
f 70//186 69//186 74//186
f 67//187 72//187 73//187
f 70//188 75//188 76//188
f 69//189 68//189 73//189
f 74//190 73//190 78//190
f 76//191 81//191 77//191
f 75//192 74//192 79//192
f 72//193 77//193 78//193
f 84//194 86//194 85//194
f 85//195 86//195 88//195
f 87//196 88//196 90//196
f 88//197 86//197 94//197
f 90//198 92//198 91//198
f 92//199 84//199 83//199
f 91//89 83//89 89//89
f 83//89 85//89 89//89
f 97//200 96//200 101//200
f 84//201 92//201 97//201
f 86//202 84//202 93//202
f 88//203 95//203 96//203
f 92//204 90//204 96//204
f 102//205 107//205 103//205
f 95//206 94//206 99//206
f 93//207 97//207 102//207
f 96//208 95//208 100//208
f 94//209 93//209 98//209
f 106//210 111//210 112//210
f 101//211 100//211 105//211
f 99//212 98//212 103//212
f 102//213 101//213 106//213
f 100//214 99//214 104//214
f 112//215 117//215 113//215
f 105//216 104//216 109//216
f 107//217 112//217 108//217
f 106//218 105//218 110//218
f 103//219 108//219 109//219
f 116//220 121//220 122//220
f 111//221 110//221 115//221
f 108//222 113//222 114//222
f 111//223 116//223 117//223
f 110//224 109//224 114//224
f 115//225 114//225 119//225
f 117//226 122//226 118//226
f 116//227 115//227 120//227
f 113//228 118//228 119//228
