# Blender v2.79 (sub 0) OBJ File: 'tree.blend'
# www.blender.org
mtllib tree-top.mtl
o Icosphere.002
v 0.934458 6.549412 1.984009
v 2.145382 7.301087 2.097665
v 1.200561 7.301087 3.170787
v -0.112011 7.301093 2.603818
v 0.021614 7.301087 1.180287
v 1.416760 7.301087 0.867479
v 1.847302 8.517354 2.787731
v 0.452157 8.517354 3.100539
v -0.276466 8.517354 1.870353
v 0.668356 8.517354 0.797230
v 1.980927 8.517348 1.364199
v 0.934458 9.269030 1.984009
v 1.090868 6.752493 2.681574
v 1.646216 6.752493 2.050813
v 1.802632 7.194318 2.748384
v 1.929707 7.194320 1.394536
v 1.217946 6.752493 1.327734
v 0.319360 6.752497 2.348323
v 0.475766 7.194320 3.045894
v 0.397906 6.752493 1.511596
v -0.217198 7.194320 1.875911
v 0.681392 7.194318 0.855314
v 2.261322 7.909221 1.686497
v 1.833050 7.909221 0.963414
v 1.627427 7.909221 3.153998
v 2.182784 7.909221 2.523232
v 0.035867 7.909221 3.004603
v 0.807379 7.909221 3.337867
v -0.313868 7.909221 1.444785
v -0.392405 7.909221 2.281521
v 1.061538 7.909221 0.630151
v 0.241490 7.909221 0.814020
v 2.086115 8.624122 2.092106
v 1.187524 8.624124 3.112704
v -0.060791 8.624121 2.573481
v 0.066285 8.624124 1.219634
v 1.393150 8.624122 0.922124
v 1.471011 9.065948 2.456421
v 1.549556 9.065945 1.619694
v 0.650971 9.065948 2.640284
v 0.222700 9.065948 1.917204
v 0.778048 9.065948 1.286443
vn 0.2487 -0.9435 0.2189
vn 0.7391 -0.6617 -0.1262
vn -0.1314 -0.9435 0.3041
vn -0.3299 -0.9435 -0.0310
vn -0.0725 -0.9435 -0.3233
vn 0.9153 -0.3304 -0.2306
vn 0.5021 -0.3304 0.7992
vn -0.6049 -0.3304 0.7245
vn -0.8760 -0.3304 -0.3514
vn 0.0635 -0.3304 -0.9417
vn 0.9877 -0.1256 0.0927
vn 0.2171 -0.1256 0.9680
vn -0.8536 -0.1256 0.5056
vn -0.7446 -0.1256 -0.6556
vn 0.3934 -0.1256 -0.9107
vn 0.6721 0.6617 0.3323
vn -0.1083 0.6617 0.7419
vn -0.7391 0.6617 0.1262
vn -0.3484 0.6617 -0.6639
vn 0.5237 0.6617 -0.5365
vn 0.1314 0.9435 -0.3041
vn 0.2407 0.7947 -0.5573
vn 0.0316 0.6617 -0.7491
vn -0.2487 0.9435 -0.2189
vn -0.4556 0.7947 -0.4012
vn -0.7027 0.6617 -0.2615
vn -0.2851 0.9435 0.1688
vn -0.5223 0.7947 0.3094
vn -0.4659 0.6617 0.5875
vn 0.0725 0.9435 0.3233
vn 0.1328 0.7947 0.5924
vn 0.4147 0.6617 0.6246
vn 0.3299 0.9435 0.0310
vn 0.6044 0.7947 0.0567
vn 0.7222 0.6617 -0.2014
vn 0.6049 0.3304 -0.7245
vn 0.3895 0.1876 -0.9017
vn 0.1128 0.3304 -0.9371
vn -0.5021 0.3304 -0.7992
vn -0.7372 0.1876 -0.6491
vn -0.8564 0.3304 -0.3969
vn -0.9152 0.3304 0.2306
vn -0.8451 0.1876 0.5006
vn -0.6421 0.3304 0.6918
vn -0.0635 0.3304 0.9417
vn 0.2149 0.1876 0.9584
vn 0.4595 0.3304 0.8244
vn 0.8760 0.3304 0.3514
vn 0.9779 0.1876 0.0918
vn 0.9261 0.3304 -0.1823
vn -0.2171 0.1256 -0.9680
vn -0.2149 -0.1876 -0.9584
vn -0.4595 -0.3304 -0.8244
vn -0.9877 0.1256 -0.0927
vn -0.9779 -0.1876 -0.0918
vn -0.9261 -0.3304 0.1823
vn -0.3934 0.1256 0.9107
vn -0.3895 -0.1876 0.9017
vn -0.1128 -0.3304 0.9371
vn 0.7446 0.1256 0.6556
vn 0.7372 -0.1876 0.6491
vn 0.8564 -0.3304 0.3969
vn 0.8536 0.1256 -0.5056
vn 0.8451 -0.1876 -0.5006
vn 0.6421 -0.3304 -0.6918
vn 0.1083 -0.6617 -0.7419
vn -0.1328 -0.7947 -0.5924
vn -0.4147 -0.6617 -0.6246
vn -0.6721 -0.6617 -0.3323
vn -0.6044 -0.7947 -0.0567
vn -0.7222 -0.6617 0.2014
vn -0.5237 -0.6617 0.5365
vn -0.2407 -0.7947 0.5573
vn -0.0316 -0.6617 0.7491
vn 0.4659 -0.6617 -0.5875
vn 0.5223 -0.7947 -0.3094
vn 0.2851 -0.9435 -0.1688
vn 0.3484 -0.6617 0.6639
vn 0.4556 -0.7947 0.4012
vn 0.7027 -0.6617 0.2615
usemtl Material.002
s off
f 1//1 14//1 13//1
f 2//2 14//2 16//2
f 1//3 13//3 18//3
f 1//4 18//4 20//4
f 1//5 20//5 17//5
f 2//6 16//6 23//6
f 3//7 15//7 25//7
f 4//8 19//8 27//8
f 5//9 21//9 29//9
f 6//10 22//10 31//10
f 2//11 23//11 26//11
f 3//12 25//12 28//12
f 4//13 27//13 30//13
f 5//14 29//14 32//14
f 6//15 31//15 24//15
f 7//16 33//16 38//16
f 8//17 34//17 40//17
f 9//18 35//18 41//18
f 10//19 36//19 42//19
f 11//20 37//20 39//20
f 39//21 42//21 12//21
f 39//22 37//22 42//22
f 37//23 10//23 42//23
f 42//24 41//24 12//24
f 42//25 36//25 41//25
f 36//26 9//26 41//26
f 41//27 40//27 12//27
f 41//28 35//28 40//28
f 35//29 8//29 40//29
f 40//30 38//30 12//30
f 40//31 34//31 38//31
f 34//32 7//32 38//32
f 38//33 39//33 12//33
f 38//34 33//34 39//34
f 33//35 11//35 39//35
f 24//36 37//36 11//36
f 24//37 31//37 37//37
f 31//38 10//38 37//38
f 32//39 36//39 10//39
f 32//40 29//40 36//40
f 29//41 9//41 36//41
f 30//42 35//42 9//42
f 30//43 27//43 35//43
f 27//44 8//44 35//44
f 28//45 34//45 8//45
f 28//46 25//46 34//46
f 25//47 7//47 34//47
f 26//48 33//48 7//48
f 26//49 23//49 33//49
f 23//50 11//50 33//50
f 31//51 32//51 10//51
f 31//52 22//52 32//52
f 22//53 5//53 32//53
f 29//54 30//54 9//54
f 29//55 21//55 30//55
f 21//56 4//56 30//56
f 27//57 28//57 8//57
f 27//58 19//58 28//58
f 19//59 3//59 28//59
f 25//60 26//60 7//60
f 25//61 15//61 26//61
f 15//62 2//62 26//62
f 23//63 24//63 11//63
f 23//64 16//64 24//64
f 16//65 6//65 24//65
f 17//66 22//66 6//66
f 17//67 20//67 22//67
f 20//68 5//68 22//68
f 20//69 21//69 5//69
f 20//70 18//70 21//70
f 18//71 4//71 21//71
f 18//72 19//72 4//72
f 18//73 13//73 19//73
f 13//74 3//74 19//74
f 16//75 17//75 6//75
f 16//76 14//76 17//76
f 14//77 1//77 17//77
f 13//78 15//78 3//78
f 13//79 14//79 15//79
f 14//80 2//80 15//80
o Icosphere.001
v -4.750938 5.692792 2.005759
v -2.939109 6.817477 2.175815
v -4.352787 6.817476 3.781461
v -6.316704 6.817485 2.933140
v -6.116770 6.817476 0.803200
v -4.029301 6.817477 0.335165
v -3.385107 8.637300 3.208318
v -5.472576 8.637300 3.676353
v -6.562768 8.637300 1.835703
v -5.149090 8.637300 0.230057
v -3.185173 8.637292 1.078377
v -4.750938 9.761985 2.005759
v -4.516912 5.996650 3.049482
v -3.685980 5.996651 2.105714
v -3.451945 6.657724 3.149445
v -3.261810 6.657728 1.123769
v -4.326774 5.996651 1.023815
v -5.671271 5.996655 2.550859
v -5.437250 6.657727 3.594590
v -5.553748 5.996650 1.298918
v -6.474089 6.657727 1.844020
v -5.129585 6.657724 0.316964
v -2.765636 7.727388 1.560611
v -3.406433 7.727388 0.478707
v -3.714093 7.727388 3.756340
v -2.883147 7.727388 2.812565
v -6.095444 7.727388 3.532810
v -4.941080 7.727388 4.031451
v -6.618730 7.727388 1.198952
v -6.736241 7.727388 2.450907
v -4.560797 7.727388 -0.019933
v -5.787784 7.727388 0.255178
v -3.027788 8.797050 2.167498
v -4.372292 8.797052 3.694554
v -6.240067 8.797049 2.887749
v -6.049932 8.797052 0.862072
v -4.064627 8.797050 0.416928
v -3.948129 9.458127 2.712600
v -3.830606 9.458121 1.460658
v -5.175103 9.458126 2.987702
v -5.815897 9.458126 1.905803
v -4.984964 9.458127 0.962035
vn 0.2487 -0.9435 0.2189
vn 0.7391 -0.6617 -0.1262
vn -0.1314 -0.9435 0.3041
vn -0.3299 -0.9435 -0.0310
vn -0.0725 -0.9435 -0.3233
vn 0.9152 -0.3304 -0.2306
vn 0.5021 -0.3304 0.7992
vn -0.6049 -0.3304 0.7245
vn -0.8760 -0.3304 -0.3514
vn 0.0635 -0.3304 -0.9417
vn 0.9877 -0.1256 0.0927
vn 0.2171 -0.1256 0.9680
vn -0.8536 -0.1256 0.5056
vn -0.7446 -0.1256 -0.6556
vn 0.3934 -0.1256 -0.9107
vn 0.6721 0.6617 0.3323
vn -0.1083 0.6617 0.7419
vn -0.7391 0.6617 0.1262
vn -0.3484 0.6617 -0.6639
vn 0.5237 0.6617 -0.5365
vn 0.1314 0.9435 -0.3041
vn 0.2407 0.7947 -0.5573
vn 0.0316 0.6617 -0.7491
vn -0.2487 0.9435 -0.2189
vn -0.4556 0.7947 -0.4012
vn -0.7027 0.6617 -0.2615
vn -0.2851 0.9435 0.1688
vn -0.5223 0.7947 0.3094
vn -0.4659 0.6617 0.5875
vn 0.0725 0.9435 0.3233
vn 0.1328 0.7947 0.5924
vn 0.4147 0.6617 0.6246
vn 0.3299 0.9435 0.0310
vn 0.6044 0.7947 0.0567
vn 0.7222 0.6617 -0.2014
vn 0.6049 0.3304 -0.7245
vn 0.3895 0.1876 -0.9017
vn 0.1128 0.3304 -0.9371
vn -0.5021 0.3304 -0.7992
vn -0.7372 0.1876 -0.6491
vn -0.8564 0.3304 -0.3969
vn -0.9152 0.3304 0.2306
vn -0.8451 0.1876 0.5006
vn -0.6421 0.3304 0.6918
vn -0.0635 0.3304 0.9417
vn 0.2149 0.1876 0.9584
vn 0.4595 0.3304 0.8244
vn 0.8760 0.3304 0.3514
vn 0.9779 0.1876 0.0918
vn 0.9261 0.3304 -0.1823
vn -0.2171 0.1256 -0.9680
vn -0.2149 -0.1876 -0.9584
vn -0.4595 -0.3304 -0.8244
vn -0.9877 0.1256 -0.0927
vn -0.9779 -0.1876 -0.0918
vn -0.9261 -0.3304 0.1823
vn -0.3934 0.1256 0.9107
vn -0.3895 -0.1876 0.9017
vn -0.1128 -0.3304 0.9371
vn 0.7446 0.1256 0.6556
vn 0.7372 -0.1876 0.6491
vn 0.8564 -0.3304 0.3969
vn 0.8536 0.1256 -0.5056
vn 0.8451 -0.1876 -0.5006
vn 0.6421 -0.3304 -0.6918
vn 0.1083 -0.6617 -0.7419
vn -0.1328 -0.7947 -0.5924
vn -0.4147 -0.6617 -0.6246
vn -0.6721 -0.6617 -0.3323
vn -0.6044 -0.7947 -0.0567
vn -0.7222 -0.6617 0.2014
vn -0.5237 -0.6617 0.5365
vn -0.2407 -0.7947 0.5573
vn -0.0316 -0.6617 0.7491
vn 0.4659 -0.6617 -0.5875
vn 0.5223 -0.7947 -0.3094
vn 0.2851 -0.9435 -0.1688
vn 0.3484 -0.6617 0.6639
vn 0.4556 -0.7947 0.4012
vn 0.7027 -0.6617 0.2615
usemtl Material.002
s off
f 43//81 56//81 55//81
f 44//82 56//82 58//82
f 43//83 55//83 60//83
f 43//84 60//84 62//84
f 43//85 62//85 59//85
f 44//86 58//86 65//86
f 45//87 57//87 67//87
f 46//88 61//88 69//88
f 47//89 63//89 71//89
f 48//90 64//90 73//90
f 44//91 65//91 68//91
f 45//92 67//92 70//92
f 46//93 69//93 72//93
f 47//94 71//94 74//94
f 48//95 73//95 66//95
f 49//96 75//96 80//96
f 50//97 76//97 82//97
f 51//98 77//98 83//98
f 52//99 78//99 84//99
f 53//100 79//100 81//100
f 81//101 84//101 54//101
f 81//102 79//102 84//102
f 79//103 52//103 84//103
f 84//104 83//104 54//104
f 84//105 78//105 83//105
f 78//106 51//106 83//106
f 83//107 82//107 54//107
f 83//108 77//108 82//108
f 77//109 50//109 82//109
f 82//110 80//110 54//110
f 82//111 76//111 80//111
f 76//112 49//112 80//112
f 80//113 81//113 54//113
f 80//114 75//114 81//114
f 75//115 53//115 81//115
f 66//116 79//116 53//116
f 66//117 73//117 79//117
f 73//118 52//118 79//118
f 74//119 78//119 52//119
f 74//120 71//120 78//120
f 71//121 51//121 78//121
f 72//122 77//122 51//122
f 72//123 69//123 77//123
f 69//124 50//124 77//124
f 70//125 76//125 50//125
f 70//126 67//126 76//126
f 67//127 49//127 76//127
f 68//128 75//128 49//128
f 68//129 65//129 75//129
f 65//130 53//130 75//130
f 73//131 74//131 52//131
f 73//132 64//132 74//132
f 64//133 47//133 74//133
f 71//134 72//134 51//134
f 71//135 63//135 72//135
f 63//136 46//136 72//136
f 69//137 70//137 50//137
f 69//138 61//138 70//138
f 61//139 45//139 70//139
f 67//140 68//140 49//140
f 67//141 57//141 68//141
f 57//142 44//142 68//142
f 65//143 66//143 53//143
f 65//144 58//144 66//144
f 58//145 48//145 66//145
f 59//146 64//146 48//146
f 59//147 62//147 64//147
f 62//148 47//148 64//148
f 62//149 63//149 47//149
f 62//150 60//150 63//150
f 60//151 46//151 63//151
f 60//152 61//152 46//152
f 60//153 55//153 61//153
f 55//154 45//154 61//154
f 58//155 59//155 48//155
f 58//156 56//156 59//156
f 56//157 43//157 59//157
f 55//158 57//158 45//158
f 55//159 56//159 57//159
f 56//160 44//160 57//160
o Icosphere
v -1.301681 7.492235 -0.172603
v 0.510148 8.616920 -0.002547
v -0.903529 8.616920 1.603099
v -2.867446 8.616928 0.754779
v -2.667512 8.616920 -1.375162
v -0.580043 8.616920 -1.843196
v 0.064151 10.436744 1.029956
v -2.023318 10.436743 1.497991
v -3.113510 10.436743 -0.342659
v -1.699833 10.436744 -1.948305
v 0.264085 10.436735 -1.099984
v -1.301681 11.561428 -0.172603
v -1.067655 7.796093 0.871121
v -0.236722 7.796094 -0.072647
v -0.002688 8.457168 0.971084
v 0.187447 8.457171 -1.054593
v -0.877516 7.796094 -1.154546
v -2.222013 7.796099 0.372498
v -1.987993 8.457170 1.416229
v -2.104490 7.796093 -0.879444
v -3.024832 8.457170 -0.334342
v -1.680327 8.457168 -1.861398
v 0.683622 9.526832 -0.617751
v 0.042825 9.526832 -1.699654
v -0.264835 9.526832 1.577978
v 0.566111 9.526832 0.634204
v -2.646186 9.526832 1.354449
v -1.491822 9.526832 1.853090
v -3.169472 9.526832 -0.979409
v -3.286983 9.526832 0.272546
v -1.111539 9.526832 -2.198295
v -2.338526 9.526832 -1.923184
v 0.421470 10.596493 -0.010863
v -0.923034 10.596496 1.516192
v -2.790809 10.596492 0.709388
v -2.600674 10.596496 -1.316289
v -0.615369 10.596493 -1.761434
v -0.498871 11.257570 0.534238
v -0.381348 11.257565 -0.717703
v -1.725846 11.257569 0.809341
v -2.366640 11.257569 -0.272558
v -1.535707 11.257570 -1.216326
vn 0.2487 -0.9435 0.2189
vn 0.7391 -0.6617 -0.1262
vn -0.1314 -0.9435 0.3041
vn -0.3299 -0.9435 -0.0310
vn -0.0725 -0.9435 -0.3233
vn 0.9152 -0.3304 -0.2306
vn 0.5021 -0.3304 0.7992
vn -0.6049 -0.3304 0.7245
vn -0.8760 -0.3304 -0.3514
vn 0.0635 -0.3304 -0.9417
vn 0.9877 -0.1256 0.0927
vn 0.2171 -0.1256 0.9680
vn -0.8536 -0.1256 0.5056
vn -0.7446 -0.1256 -0.6556
vn 0.3934 -0.1256 -0.9107
vn 0.6721 0.6617 0.3323
vn -0.1083 0.6617 0.7419
vn -0.7391 0.6617 0.1262
vn -0.3484 0.6617 -0.6639
vn 0.5237 0.6617 -0.5365
vn 0.1314 0.9435 -0.3041
vn 0.2407 0.7947 -0.5573
vn 0.0316 0.6617 -0.7491
vn -0.2487 0.9435 -0.2189
vn -0.4556 0.7947 -0.4012
vn -0.7027 0.6617 -0.2615
vn -0.2851 0.9435 0.1688
vn -0.5223 0.7947 0.3094
vn -0.4659 0.6617 0.5875
vn 0.0725 0.9435 0.3233
vn 0.1328 0.7947 0.5924
vn 0.4147 0.6617 0.6246
vn 0.3299 0.9435 0.0310
vn 0.6044 0.7947 0.0567
vn 0.7222 0.6617 -0.2014
vn 0.6049 0.3304 -0.7245
vn 0.3895 0.1876 -0.9017
vn 0.1128 0.3304 -0.9371
vn -0.5021 0.3304 -0.7992
vn -0.7372 0.1876 -0.6491
vn -0.8564 0.3304 -0.3969
vn -0.9152 0.3304 0.2306
vn -0.8451 0.1876 0.5006
vn -0.6421 0.3304 0.6918
vn -0.0635 0.3304 0.9417
vn 0.2149 0.1876 0.9584
vn 0.4595 0.3304 0.8244
vn 0.8760 0.3304 0.3514
vn 0.9779 0.1876 0.0918
vn 0.9261 0.3304 -0.1823
vn -0.2171 0.1256 -0.9680
vn -0.2149 -0.1876 -0.9584
vn -0.4595 -0.3304 -0.8244
vn -0.9877 0.1256 -0.0927
vn -0.9779 -0.1876 -0.0918
vn -0.9261 -0.3304 0.1823
vn -0.3934 0.1256 0.9107
vn -0.3895 -0.1876 0.9017
vn -0.1128 -0.3304 0.9371
vn 0.7446 0.1256 0.6556
vn 0.7372 -0.1876 0.6491
vn 0.8564 -0.3304 0.3969
vn 0.8536 0.1256 -0.5056
vn 0.8451 -0.1876 -0.5006
vn 0.6421 -0.3304 -0.6918
vn 0.1083 -0.6617 -0.7419
vn -0.1328 -0.7947 -0.5924
vn -0.4147 -0.6617 -0.6246
vn -0.6721 -0.6617 -0.3323
vn -0.6044 -0.7947 -0.0567
vn -0.7222 -0.6617 0.2014
vn -0.5237 -0.6617 0.5365
vn -0.2407 -0.7947 0.5573
vn -0.0316 -0.6617 0.7491
vn 0.4659 -0.6617 -0.5875
vn 0.5223 -0.7947 -0.3094
vn 0.2851 -0.9435 -0.1688
vn 0.3484 -0.6617 0.6639
vn 0.4556 -0.7947 0.4012
vn 0.7027 -0.6617 0.2615
usemtl Material.002
s off
f 85//161 98//161 97//161
f 86//162 98//162 100//162
f 85//163 97//163 102//163
f 85//164 102//164 104//164
f 85//165 104//165 101//165
f 86//166 100//166 107//166
f 87//167 99//167 109//167
f 88//168 103//168 111//168
f 89//169 105//169 113//169
f 90//170 106//170 115//170
f 86//171 107//171 110//171
f 87//172 109//172 112//172
f 88//173 111//173 114//173
f 89//174 113//174 116//174
f 90//175 115//175 108//175
f 91//176 117//176 122//176
f 92//177 118//177 124//177
f 93//178 119//178 125//178
f 94//179 120//179 126//179
f 95//180 121//180 123//180
f 123//181 126//181 96//181
f 123//182 121//182 126//182
f 121//183 94//183 126//183
f 126//184 125//184 96//184
f 126//185 120//185 125//185
f 120//186 93//186 125//186
f 125//187 124//187 96//187
f 125//188 119//188 124//188
f 119//189 92//189 124//189
f 124//190 122//190 96//190
f 124//191 118//191 122//191
f 118//192 91//192 122//192
f 122//193 123//193 96//193
f 122//194 117//194 123//194
f 117//195 95//195 123//195
f 108//196 121//196 95//196
f 108//197 115//197 121//197
f 115//198 94//198 121//198
f 116//199 120//199 94//199
f 116//200 113//200 120//200
f 113//201 93//201 120//201
f 114//202 119//202 93//202
f 114//203 111//203 119//203
f 111//204 92//204 119//204
f 112//205 118//205 92//205
f 112//206 109//206 118//206
f 109//207 91//207 118//207
f 110//208 117//208 91//208
f 110//209 107//209 117//209
f 107//210 95//210 117//210
f 115//211 116//211 94//211
f 115//212 106//212 116//212
f 106//213 89//213 116//213
f 113//214 114//214 93//214
f 113//215 105//215 114//215
f 105//216 88//216 114//216
f 111//217 112//217 92//217
f 111//218 103//218 112//218
f 103//219 87//219 112//219
f 109//220 110//220 91//220
f 109//221 99//221 110//221
f 99//222 86//222 110//222
f 107//223 108//223 95//223
f 107//224 100//224 108//224
f 100//225 90//225 108//225
f 101//226 106//226 90//226
f 101//227 104//227 106//227
f 104//228 89//228 106//228
f 104//229 105//229 89//229
f 104//230 102//230 105//230
f 102//231 88//231 105//231
f 102//232 103//232 88//232
f 102//233 97//233 103//233
f 97//234 87//234 103//234
f 100//235 101//235 90//235
f 100//236 98//236 101//236
f 98//237 85//237 101//237
f 97//238 99//238 87//238
f 97//239 98//239 99//239
f 98//240 86//240 99//240
